<?xml version="1.0" encoding="utf-8"?>
<!DOCTYPE svg PUBLIC "-//W3C//DTD SVG 1.1//EN" "http://www.w3.org/Graphics/SVG/1.1/DTD/svg11.dtd">
<svg version="1.1" xmlns="http://www.w3.org/2000/svg" xmlns:xlink="http://www.w3.org/1999/xlink" x="0px" y="0px"
	 width="116.025px" height="54.437px" viewBox="0 0 116.025 54.437" enable-background="new 0 0 116.025 54.437"
	 xml:space="preserve">
<g id="background">
	<polyline fill="#333333" points="0,27.237 17.182,0 50.096,0 58.11,12.883 65.323,0 98.914,0 116.025,27.2 98.364,54.436
		65.729,54.437 57.487,41.55 50.09,54.437 17.111,54.437 0,27.237"/>
</g>
<g id="logo">
	<g id="left_2_">
		<polygon id="left" fill="#AAA6A0" points="0,27.237 17.182,0 25.196,12.883 16.035,27.235 25.196,41.554 17.111,54.437"/>
		<polygon id="left-top" fill="#9F9B96" points="58.11,12.883 25.196,12.883 17.182,0 50.096,0"/>
		<linearGradient id="SVGID_1_" gradientUnits="userSpaceOnUse" x1="16.0347" y1="27.2188" x2="33.668" y2="27.2188">
			<stop offset="0" style="stop-color:#B3AFA8"/>
			<stop offset="1" style="stop-color:#A19D98"/>
		</linearGradient>
		<polygon fill="url(#SVGID_1_)" points="33.668,27.219 25.196,12.883 16.035,27.235 25.196,41.554"/>
		<linearGradient id="SVGID_2_" gradientUnits="userSpaceOnUse" x1="24.2363" y1="37.9731" x2="50.8658" y2="30.8378">
			<stop offset="0" style="stop-color:#B3AFA8"/>
			<stop offset="1" style="stop-color:#A19D98"/>
		</linearGradient>
		<path fill="url(#SVGID_2_)" d="M33.658,27.202l0.01,0.018l-8.472,14.335h16.457l8.238-14.353
			C44.919,27.202,33.658,27.202,33.658,27.202z"/>
		<linearGradient id="SVGID_3_" gradientUnits="userSpaceOnUse" x1="27.8135" y1="22.6499" x2="58.5227" y2="14.4214">
			<stop offset="0" style="stop-color:#B3AFA8"/>
			<stop offset="1" style="stop-color:#A19D98"/>
		</linearGradient>
		<path fill="url(#SVGID_3_)" d="M25.196,12.883l8.461,14.318h0.374c4.955,0,10.888,0,15.86,0l8.219-14.318H25.196z"/>
	</g>
	<g id="right">
		<polygon id="left_3_" fill="#97948F" points="116.025,27.2 98.364,54.436 90.829,41.554 99.99,27.202 90.829,12.883 98.914,0
			"/>
		<polygon id="left-top_2_" fill="#9C9893" points="57.487,41.554 90.814,41.554 98.364,54.436 65.729,54.437"/>
		<linearGradient id="SVGID_4_" gradientUnits="userSpaceOnUse" x1="82.5527" y1="27.2183" x2="99.9902" y2="27.2183">
			<stop offset="0" style="stop-color:#9A9793"/>
			<stop offset="1" style="stop-color:#AAA6A0"/>
		</linearGradient>
		<polygon fill="url(#SVGID_4_)" points="82.553,27.219 90.829,41.554 99.99,27.202 90.829,12.883"/>
		<linearGradient id="SVGID_5_" gradientUnits="userSpaceOnUse" x1="57.0825" y1="40.0444" x2="88.1907" y2="31.709">
			<stop offset="0" style="stop-color:#A29F9A"/>
			<stop offset="1" style="stop-color:#B0ACA7"/>
		</linearGradient>
		<path fill="url(#SVGID_5_)" d="M82.563,27.202c-5.846,0-11.09,0-16.927,0l-8.148,14.353h33.342l-8.276-14.335L82.563,27.202z"/>
		<linearGradient id="SVGID_6_" gradientUnits="userSpaceOnUse" x1="64.6846" y1="23.6528" x2="91.7701" y2="16.3953">
			<stop offset="0" style="stop-color:#A29F9A"/>
			<stop offset="1" style="stop-color:#B0ACA7"/>
		</linearGradient>
		<path fill="url(#SVGID_6_)" d="M90.829,12.883H73.76l-8.124,14.319c5.837,0,11.081,0,16.927,0L90.829,12.883z"/>
	</g>
	<polygon id="middle" fill="#9F9B96" points="58.11,40.464 73.76,12.883 90.829,12.883 98.914,0 65.323,0 58.11,12.883
		41.653,41.554 25.196,41.554 17.111,54.437 50.09,54.437"/>
</g>
</svg>
